<svg id="visual" viewBox="0 0 900 600" width="900" height="600" xmlns="http://www.w3.org/2000/svg" xmlns:xlink="http://www.w3.org/1999/xlink" version="1.1">
	<rect x="0" y="0" width="900" height="600" fill="#ffffff">
	</rect>
	<path d="M0 435L129 372L257 357L386 361L514 421L643 408L771 374L900 375L900 601L771 601L643 601L514 601L386 601L257 601L129 601L0 601Z" fill="#abffe6">
	</path>
	<path d="M0 398L129 401L257 445L386 474L514 454L643 435L771 453L900 402L900 601L771 601L643 601L514 601L386 601L257 601L129 601L0 601Z" fill="#7fffcf">
	</path>
	<path d="M0 501L129 453L257 479L386 468L514 457L643 456L771 479L900 466L900 601L771 601L643 601L514 601L386 601L257 601L129 601L0 601Z" fill="#53ffb0">
	</path>
	<path d="M0 501L129 511L257 506L386 522L514 517L643 532L771 513L900 521L900 601L771 601L643 601L514 601L386 601L257 601L129 601L0 601Z" fill="#28ff88">
	</path>
	<path d="M0 559L129 535L257 555L386 534L514 572L643 537L771 549L900 543L900 601L771 601L643 601L514 601L386 601L257 601L129 601L0 601Z" fill="#05ff51">
	</path>
</svg>
