<svg id="visual" viewBox="0 0 900 600" width="900" height="600" xmlns="http://www.w3.org/2000/svg" xmlns:xlink="http://www.w3.org/1999/xlink" version="1.1"><rect x="0" y="0" width="900" height="600" fill="#ffffff"></rect><path d="M0 118L225 8L450 60L675 3L900 115L900 601L675 601L450 601L225 601L0 601Z" fill="#abffe6"></path><path d="M0 224L225 336L450 256L675 130L900 97L900 601L675 601L450 601L225 601L0 601Z" fill="#9bffdf"></path><path d="M0 164L225 136L450 347L675 289L900 196L900 601L675 601L450 601L225 601L0 601Z" fill="#8bffd6"></path><path d="M0 353L225 163L450 207L675 141L900 204L900 601L675 601L450 601L225 601L0 601Z" fill="#7bffcd"></path><path d="M0 417L225 380L450 275L675 215L900 317L900 601L675 601L450 601L225 601L0 601Z" fill="#6bffc2"></path><path d="M0 402L225 327L450 408L675 305L900 314L900 601L675 601L450 601L225 601L0 601Z" fill="#5bffb6"></path><path d="M0 305L225 325L450 340L675 386L900 330L900 601L675 601L450 601L225 601L0 601Z" fill="#4bffa9"></path><path d="M0 407L225 355L450 330L675 333L900 388L900 601L675 601L450 601L225 601L0 601Z" fill="#3bff9b"></path><path d="M0 460L225 474L450 501L675 395L900 459L900 601L675 601L450 601L225 601L0 601Z" fill="#2cff8c"></path><path d="M0 483L225 533L450 542L675 552L900 500L900 601L675 601L450 601L225 601L0 601Z" fill="#1cff7b"></path><path d="M0 495L225 498L450 536L675 538L900 535L900 601L675 601L450 601L225 601L0 601Z" fill="#0dff67"></path><path d="M0 518L225 571L450 526L675 537L900 513L900 601L675 601L450 601L225 601L0 601Z" fill="#05ff51"></path></svg>