<svg id="visual" viewBox="0 0 1920 1080" width="1920" height="1080" xmlns="http://www.w3.org/2000/svg" xmlns:xlink="http://www.w3.org/1999/xlink" version="1.1"><rect x="0" y="0" width="1920" height="1080" fill="#ffffff"></rect><path d="M0 702L45.7 705.7C91.3 709.3 182.7 716.7 274.2 705.5C365.7 694.3 457.3 664.7 548.8 653.2C640.3 641.7 731.7 648.3 823 662.7C914.3 677 1005.7 699 1097 718.3C1188.3 737.7 1279.7 754.3 1371.2 768.8C1462.7 783.3 1554.3 795.7 1645.8 787.5C1737.3 779.3 1828.7 750.7 1874.3 736.3L1920 722L1920 1081L1874.3 1081C1828.7 1081 1737.3 1081 1645.8 1081C1554.3 1081 1462.7 1081 1371.2 1081C1279.7 1081 1188.3 1081 1097 1081C1005.7 1081 914.3 1081 823 1081C731.7 1081 640.3 1081 548.8 1081C457.3 1081 365.7 1081 274.2 1081C182.7 1081 91.3 1081 45.7 1081L0 1081Z" fill="#009473"></path><path d="M0 813L45.7 818.3C91.3 823.7 182.7 834.3 274.2 836.2C365.7 838 457.3 831 548.8 831.2C640.3 831.3 731.7 838.7 823 826.5C914.3 814.3 1005.7 782.7 1097 785.7C1188.3 788.7 1279.7 826.3 1371.2 825.8C1462.7 825.3 1554.3 786.7 1645.8 782.5C1737.3 778.3 1828.7 808.7 1874.3 823.8L1920 839L1920 1081L1874.3 1081C1828.7 1081 1737.3 1081 1645.8 1081C1554.3 1081 1462.7 1081 1371.2 1081C1279.7 1081 1188.3 1081 1097 1081C1005.7 1081 914.3 1081 823 1081C731.7 1081 640.3 1081 548.8 1081C457.3 1081 365.7 1081 274.2 1081C182.7 1081 91.3 1081 45.7 1081L0 1081Z" fill="#00ac94"></path><path d="M0 886L45.7 883C91.3 880 182.7 874 274.2 869.2C365.7 864.3 457.3 860.7 548.8 860.8C640.3 861 731.7 865 823 856.5C914.3 848 1005.7 827 1097 826.8C1188.3 826.7 1279.7 847.3 1371.2 864.3C1462.7 881.3 1554.3 894.7 1645.8 899.8C1737.3 905 1828.7 902 1874.3 900.5L1920 899L1920 1081L1874.3 1081C1828.7 1081 1737.3 1081 1645.8 1081C1554.3 1081 1462.7 1081 1371.2 1081C1279.7 1081 1188.3 1081 1097 1081C1005.7 1081 914.3 1081 823 1081C731.7 1081 640.3 1081 548.8 1081C457.3 1081 365.7 1081 274.2 1081C182.7 1081 91.3 1081 45.7 1081L0 1081Z" fill="#00c5b6"></path><path d="M0 865L45.7 867.7C91.3 870.3 182.7 875.7 274.2 885C365.7 894.3 457.3 907.7 548.8 923.3C640.3 939 731.7 957 823 961C914.3 965 1005.7 955 1097 953.3C1188.3 951.7 1279.7 958.3 1371.2 954.2C1462.7 950 1554.3 935 1645.8 930.7C1737.3 926.3 1828.7 932.7 1874.3 935.8L1920 939L1920 1081L1874.3 1081C1828.7 1081 1737.3 1081 1645.8 1081C1554.3 1081 1462.7 1081 1371.2 1081C1279.7 1081 1188.3 1081 1097 1081C1005.7 1081 914.3 1081 823 1081C731.7 1081 640.3 1081 548.8 1081C457.3 1081 365.7 1081 274.2 1081C182.7 1081 91.3 1081 45.7 1081L0 1081Z" fill="#00deda"></path><path d="M0 1028L45.7 1015.2C91.3 1002.3 182.7 976.7 274.2 963C365.7 949.3 457.3 947.7 548.8 961C640.3 974.3 731.7 1002.7 823 1012.7C914.3 1022.7 1005.7 1014.3 1097 1003.8C1188.3 993.3 1279.7 980.7 1371.2 978.5C1462.7 976.3 1554.3 984.7 1645.8 984C1737.3 983.3 1828.7 973.7 1874.3 968.8L1920 964L1920 1081L1874.3 1081C1828.7 1081 1737.3 1081 1645.8 1081C1554.3 1081 1462.7 1081 1371.2 1081C1279.7 1081 1188.3 1081 1097 1081C1005.7 1081 914.3 1081 823 1081C731.7 1081 640.3 1081 548.8 1081C457.3 1081 365.7 1081 274.2 1081C182.7 1081 91.3 1081 45.7 1081L0 1081Z" fill="#00f7ff"></path></svg>