<svg id="visual" viewBox="0 0 1920 1080" width="1920" height="1080" xmlns="http://www.w3.org/2000/svg" xmlns:xlink="http://www.w3.org/1999/xlink" version="1.1"><rect x="0" y="0" width="1920" height="1080" fill="#ffffff"></rect><path d="M0 376L45.7 372.3C91.3 368.7 182.7 361.3 274.2 372.5C365.7 383.7 457.3 413.3 548.8 424.8C640.3 436.3 731.7 429.7 823 415.3C914.3 401 1005.7 379 1097 359.7C1188.3 340.3 1279.7 323.7 1371.2 309.2C1462.7 294.7 1554.3 282.3 1645.8 290.5C1737.3 298.7 1828.7 327.3 1874.3 341.7L1920 356L1920 0L1874.3 0C1828.7 0 1737.3 0 1645.8 0C1554.3 0 1462.7 0 1371.2 0C1279.7 0 1188.3 0 1097 0C1005.7 0 914.3 0 823 0C731.7 0 640.3 0 548.8 0C457.3 0 365.7 0 274.2 0C182.7 0 91.3 0 45.7 0L0 0Z" fill="#009473"></path><path d="M0 265L45.7 259.7C91.3 254.3 182.7 243.7 274.2 241.8C365.7 240 457.3 247 548.8 246.8C640.3 246.7 731.7 239.3 823 251.5C914.3 263.7 1005.7 295.3 1097 292.3C1188.3 289.3 1279.7 251.7 1371.2 252.2C1462.7 252.7 1554.3 291.3 1645.8 295.5C1737.3 299.7 1828.7 269.3 1874.3 254.2L1920 239L1920 0L1874.3 0C1828.7 0 1737.3 0 1645.8 0C1554.3 0 1462.7 0 1371.2 0C1279.7 0 1188.3 0 1097 0C1005.7 0 914.3 0 823 0C731.7 0 640.3 0 548.8 0C457.3 0 365.7 0 274.2 0C182.7 0 91.3 0 45.7 0L0 0Z" fill="#00ac94"></path><path d="M0 192L45.7 195C91.3 198 182.7 204 274.2 208.8C365.7 213.7 457.3 217.3 548.8 217.2C640.3 217 731.7 213 823 221.5C914.3 230 1005.7 251 1097 251.2C1188.3 251.3 1279.7 230.7 1371.2 213.7C1462.7 196.7 1554.3 183.3 1645.8 178.2C1737.3 173 1828.7 176 1874.3 177.5L1920 179L1920 0L1874.3 0C1828.7 0 1737.3 0 1645.8 0C1554.3 0 1462.7 0 1371.2 0C1279.7 0 1188.3 0 1097 0C1005.7 0 914.3 0 823 0C731.7 0 640.3 0 548.8 0C457.3 0 365.7 0 274.2 0C182.7 0 91.3 0 45.7 0L0 0Z" fill="#00c5b6"></path><path d="M0 213L45.7 210.3C91.3 207.7 182.7 202.3 274.2 193C365.7 183.7 457.3 170.3 548.8 154.7C640.3 139 731.7 121 823 117C914.3 113 1005.7 123 1097 124.7C1188.3 126.3 1279.7 119.7 1371.2 123.8C1462.7 128 1554.3 143 1645.8 147.3C1737.3 151.7 1828.7 145.3 1874.3 142.2L1920 139L1920 0L1874.3 0C1828.7 0 1737.3 0 1645.8 0C1554.3 0 1462.7 0 1371.2 0C1279.7 0 1188.3 0 1097 0C1005.7 0 914.3 0 823 0C731.7 0 640.3 0 548.8 0C457.3 0 365.7 0 274.2 0C182.7 0 91.3 0 45.7 0L0 0Z" fill="#00deda"></path><path d="M0 50L45.7 62.8C91.3 75.7 182.7 101.3 274.2 115C365.7 128.7 457.3 130.3 548.8 117C640.3 103.7 731.7 75.3 823 65.3C914.3 55.3 1005.7 63.7 1097 74.2C1188.3 84.7 1279.7 97.3 1371.2 99.5C1462.7 101.7 1554.3 93.3 1645.8 94C1737.3 94.7 1828.7 104.3 1874.3 109.2L1920 114L1920 0L1874.3 0C1828.7 0 1737.3 0 1645.8 0C1554.3 0 1462.7 0 1371.2 0C1279.7 0 1188.3 0 1097 0C1005.7 0 914.3 0 823 0C731.7 0 640.3 0 548.8 0C457.3 0 365.7 0 274.2 0C182.7 0 91.3 0 45.7 0L0 0Z" fill="#00f7ff"></path></svg>