<svg id="visual" viewBox="0 0 1920 1080" width="1920" height="1080" xmlns="http://www.w3.org/2000/svg" xmlns:xlink="http://www.w3.org/1999/xlink" version="1.1"><rect x="0" y="0" width="1920" height="1080" fill="#ffffff"></rect><path d="M672 0L665.3 25.7C658.7 51.3 645.3 102.7 665 154.2C684.7 205.7 737.3 257.3 757.8 308.8C778.3 360.3 766.7 411.7 741.3 463C716 514.3 677 565.7 642.5 617C608 668.3 578 719.7 552 771.2C526 822.7 504 874.3 518.7 925.8C533.3 977.3 584.7 1028.7 610.3 1054.3L636 1080L0 1080L0 1054.3C0 1028.7 0 977.3 0 925.8C0 874.3 0 822.7 0 771.2C0 719.7 0 668.3 0 617C0 565.7 0 514.3 0 463C0 411.7 0 360.3 0 308.8C0 257.3 0 205.7 0 154.2C0 102.7 0 51.3 0 25.7L0 0Z" fill="#009473"></path><path d="M474 0L464.3 25.7C454.7 51.3 435.3 102.7 432.2 154.2C429 205.7 442 257.3 441.8 308.8C441.7 360.3 428.3 411.7 450 463C471.7 514.3 528.3 565.7 523 617C517.7 668.3 450.3 719.7 451.2 771.2C452 822.7 521 874.3 528.3 925.8C535.7 977.3 481.3 1028.7 454.2 1054.3L427 1080L0 1080L0 1054.3C0 1028.7 0 977.3 0 925.8C0 874.3 0 822.7 0 771.2C0 719.7 0 668.3 0 617C0 565.7 0 514.3 0 463C0 411.7 0 360.3 0 308.8C0 257.3 0 205.7 0 154.2C0 102.7 0 51.3 0 25.7L0 0Z" fill="#00ac94"></path><path d="M344 0L349.3 25.7C354.7 51.3 365.3 102.7 374 154.2C382.7 205.7 389.3 257.3 389 308.8C388.7 360.3 381.3 411.7 396.3 463C411.3 514.3 448.7 565.7 449.2 617C449.7 668.3 413.3 719.7 383.2 771.2C353 822.7 329 874.3 319.8 925.8C310.7 977.3 316.3 1028.7 319.2 1054.3L322 1080L0 1080L0 1054.3C0 1028.7 0 977.3 0 925.8C0 874.3 0 822.7 0 771.2C0 719.7 0 668.3 0 617C0 565.7 0 514.3 0 463C0 411.7 0 360.3 0 308.8C0 257.3 0 205.7 0 154.2C0 102.7 0 51.3 0 25.7L0 0Z" fill="#00c5b6"></path><path d="M381 0L376.3 25.7C371.7 51.3 362.3 102.7 345.7 154.2C329 205.7 305 257.3 277 308.8C249 360.3 217 411.7 210.2 463C203.3 514.3 221.7 565.7 224.7 617C227.7 668.3 215.3 719.7 222.7 771.2C230 822.7 257 874.3 264.8 925.8C272.7 977.3 261.3 1028.7 255.7 1054.3L250 1080L0 1080L0 1054.3C0 1028.7 0 977.3 0 925.8C0 874.3 0 822.7 0 771.2C0 719.7 0 668.3 0 617C0 565.7 0 514.3 0 463C0 411.7 0 360.3 0 308.8C0 257.3 0 205.7 0 154.2C0 102.7 0 51.3 0 25.7L0 0Z" fill="#00deda"></path><path d="M92 0L114.8 25.7C137.7 51.3 183.3 102.7 207.5 154.2C231.7 205.7 234.3 257.3 210.5 308.8C186.7 360.3 136.3 411.7 118.7 463C101 514.3 116 565.7 134.8 617C153.7 668.3 176.3 719.7 180.3 771.2C184.3 822.7 169.7 874.3 170.8 925.8C172 977.3 189 1028.7 197.5 1054.3L206 1080L0 1080L0 1054.3C0 1028.7 0 977.3 0 925.8C0 874.3 0 822.7 0 771.2C0 719.7 0 668.3 0 617C0 565.7 0 514.3 0 463C0 411.7 0 360.3 0 308.8C0 257.3 0 205.7 0 154.2C0 102.7 0 51.3 0 25.7L0 0Z" fill="#00f7ff"></path></svg>