<svg id="visual" viewBox="0 0 1920 1080" width="1920" height="1080" xmlns="http://www.w3.org/2000/svg" xmlns:xlink="http://www.w3.org/1999/xlink" version="1.1"><rect x="0" y="0" width="1920" height="1080" fill="#ffffff"></rect><path d="M1250 1080L1256.7 1054.3C1263.3 1028.7 1276.7 977.3 1257 925.8C1237.3 874.3 1184.7 822.7 1164.2 771.2C1143.7 719.7 1155.3 668.3 1180.7 617C1206 565.7 1245 514.3 1279.5 463C1314 411.7 1344 360.3 1370 308.8C1396 257.3 1418 205.7 1403.3 154.2C1388.7 102.7 1337.3 51.3 1311.7 25.7L1286 0L1920 0L1920 25.7C1920 51.3 1920 102.7 1920 154.2C1920 205.7 1920 257.3 1920 308.8C1920 360.3 1920 411.7 1920 463C1920 514.3 1920 565.7 1920 617C1920 668.3 1920 719.7 1920 771.2C1920 822.7 1920 874.3 1920 925.8C1920 977.3 1920 1028.7 1920 1054.3L1920 1080Z" fill="#009473"></path><path d="M1448 1080L1457.7 1054.3C1467.3 1028.7 1486.7 977.3 1489.8 925.8C1493 874.3 1480 822.7 1480.2 771.2C1480.3 719.7 1493.7 668.3 1472 617C1450.3 565.7 1393.7 514.3 1399 463C1404.3 411.7 1471.7 360.3 1470.8 308.8C1470 257.3 1401 205.7 1393.7 154.2C1386.3 102.7 1440.7 51.3 1467.8 25.7L1495 0L1920 0L1920 25.7C1920 51.3 1920 102.7 1920 154.2C1920 205.7 1920 257.3 1920 308.8C1920 360.3 1920 411.7 1920 463C1920 514.3 1920 565.7 1920 617C1920 668.3 1920 719.7 1920 771.2C1920 822.7 1920 874.3 1920 925.8C1920 977.3 1920 1028.7 1920 1054.3L1920 1080Z" fill="#00ac94"></path><path d="M1578 1080L1572.7 1054.3C1567.3 1028.7 1556.7 977.3 1548 925.8C1539.3 874.3 1532.7 822.7 1533 771.2C1533.3 719.7 1540.7 668.3 1525.7 617C1510.7 565.7 1473.3 514.3 1472.8 463C1472.3 411.7 1508.7 360.3 1538.8 308.8C1569 257.3 1593 205.7 1602.2 154.2C1611.3 102.7 1605.7 51.3 1602.8 25.7L1600 0L1920 0L1920 25.7C1920 51.3 1920 102.7 1920 154.2C1920 205.7 1920 257.3 1920 308.8C1920 360.3 1920 411.7 1920 463C1920 514.3 1920 565.7 1920 617C1920 668.3 1920 719.7 1920 771.2C1920 822.7 1920 874.3 1920 925.8C1920 977.3 1920 1028.7 1920 1054.3L1920 1080Z" fill="#00c5b6"></path><path d="M1541 1080L1545.7 1054.3C1550.3 1028.7 1559.7 977.3 1576.3 925.8C1593 874.3 1617 822.7 1645 771.2C1673 719.7 1705 668.3 1711.8 617C1718.7 565.7 1700.3 514.3 1697.3 463C1694.3 411.7 1706.7 360.3 1699.3 308.8C1692 257.3 1665 205.7 1657.2 154.2C1649.3 102.7 1660.7 51.3 1666.3 25.7L1672 0L1920 0L1920 25.7C1920 51.3 1920 102.7 1920 154.2C1920 205.7 1920 257.3 1920 308.8C1920 360.3 1920 411.7 1920 463C1920 514.3 1920 565.7 1920 617C1920 668.3 1920 719.7 1920 771.2C1920 822.7 1920 874.3 1920 925.8C1920 977.3 1920 1028.7 1920 1054.3L1920 1080Z" fill="#00deda"></path><path d="M1830 1080L1807.2 1054.3C1784.3 1028.7 1738.7 977.3 1714.5 925.8C1690.3 874.3 1687.7 822.7 1711.5 771.2C1735.3 719.7 1785.7 668.3 1803.3 617C1821 565.7 1806 514.3 1787.2 463C1768.3 411.7 1745.7 360.3 1741.7 308.8C1737.7 257.3 1752.3 205.7 1751.2 154.2C1750 102.7 1733 51.3 1724.5 25.7L1716 0L1920 0L1920 25.7C1920 51.3 1920 102.7 1920 154.2C1920 205.7 1920 257.3 1920 308.8C1920 360.3 1920 411.7 1920 463C1920 514.3 1920 565.7 1920 617C1920 668.3 1920 719.7 1920 771.2C1920 822.7 1920 874.3 1920 925.8C1920 977.3 1920 1028.7 1920 1054.3L1920 1080Z" fill="#00f7ff"></path></svg>